<svg width="38" height="38" viewBox="0 0 38 38" fill="none" xmlns="http://www.w3.org/2000/svg">
<rect width="38" height="38" fill="white"/>
<rect x="3" y="3" width="32" height="32" fill="black"/>
<path d="M10.376 25V13.625H14.2666C15.4437 13.625 16.3656 13.8672 17.0322 14.3516C17.7041 14.8359 18.04 15.5964 18.04 16.6328C18.04 17.2578 17.8864 17.7682 17.5791 18.1641C17.277 18.5599 16.8994 18.8385 16.4463 19V19.0312C16.9984 19.1927 17.4515 19.5 17.8057 19.9531C18.165 20.401 18.3447 20.9922 18.3447 21.7266C18.3447 22.763 17.9932 23.5677 17.29 24.1406C16.5869 24.7135 15.6572 25 14.501 25H10.376ZM12.1338 23.625H14.4697C15.1937 23.625 15.7249 23.4505 16.0635 23.1016C16.402 22.7474 16.5713 22.2734 16.5713 21.6797C16.5713 21.0911 16.402 20.6224 16.0635 20.2734C15.7249 19.9245 15.1937 19.75 14.4697 19.75H12.1338V23.625ZM12.1338 18.4219H14.2432C14.9671 18.4219 15.488 18.2708 15.8057 17.9688C16.1234 17.6615 16.2822 17.237 16.2822 16.6953C16.2822 16.1536 16.1234 15.737 15.8057 15.4453C15.488 15.1536 14.9671 15.0078 14.2432 15.0078H12.1338V18.4219ZM19.7915 20.6646V20.0933C19.7915 18.6545 20.166 17.5415 20.915 16.7544C21.6641 15.9631 22.612 15.5674 23.7588 15.5674C24.8971 15.5674 25.7858 15.8721 26.4248 16.4814C27.068 17.0866 27.396 17.8293 27.4087 18.7095V18.7983H25.9424V18.7031C25.9339 18.1403 25.7498 17.6769 25.3901 17.313C25.0347 16.9448 24.4909 16.7607 23.7588 16.7607C23.0309 16.7607 22.4342 17.0295 21.9688 17.5669C21.5075 18.1043 21.2769 18.9274 21.2769 20.0361V20.7217C21.2769 21.7585 21.5054 22.5646 21.9624 23.1401C22.4237 23.7114 23.0246 23.9971 23.7651 23.9971C24.4634 23.9971 24.9881 23.8109 25.3394 23.4385C25.6906 23.0618 25.8895 22.5985 25.936 22.0483L25.9424 21.9595H27.4087V22.0483C27.3368 22.9285 26.994 23.6733 26.3804 24.2827C25.771 24.8879 24.8971 25.1904 23.7588 25.1904C22.6077 25.1904 21.6577 24.7948 20.9087 24.0034C20.1639 23.2121 19.7915 22.0991 19.7915 20.6646Z" fill="white"/>
</svg>
