<svg width="218" height="61" viewBox="0 0 218 61" fill="none" xmlns="http://www.w3.org/2000/svg">
<rect width="218" height="61" fill="white"/>
<rect x="8.5" y="6.5" width="201" height="48" stroke="black" stroke-width="2"/>
<rect width="79" height="38" transform="translate(13.5 11.5)" fill="black"/>
<path d="M26.2773 30.5742H22.6543L22.6348 28.7871H25.7988C26.3327 28.7871 26.7852 28.709 27.1562 28.5527C27.5339 28.39 27.8203 28.1589 28.0156 27.8594C28.2109 27.5534 28.3086 27.1855 28.3086 26.7559C28.3086 26.2806 28.2174 25.8932 28.0352 25.5938C27.8529 25.2943 27.5729 25.0762 27.1953 24.9395C26.8242 24.8027 26.349 24.7344 25.7695 24.7344H23.3965V37H20.9453V22.7812H25.7695C26.5508 22.7812 27.2474 22.8561 27.8594 23.0059C28.4779 23.1556 29.002 23.39 29.4316 23.709C29.8678 24.0215 30.1966 24.4186 30.418 24.9004C30.6458 25.3822 30.7598 25.9551 30.7598 26.6191C30.7598 27.2051 30.6198 27.7422 30.3398 28.2305C30.0599 28.7122 29.6465 29.1061 29.0996 29.4121C28.5527 29.7181 27.8724 29.9004 27.0586 29.959L26.2773 30.5742ZM26.1699 37H21.8828L22.9863 35.0566H26.1699C26.7233 35.0566 27.1855 34.9655 27.5566 34.7832C27.9277 34.5944 28.2044 34.3372 28.3867 34.0117C28.5755 33.6797 28.6699 33.2923 28.6699 32.8496C28.6699 32.3874 28.5885 31.987 28.4258 31.6484C28.263 31.3034 28.0059 31.0397 27.6543 30.8574C27.3027 30.6686 26.8438 30.5742 26.2773 30.5742H23.5234L23.543 28.7871H27.127L27.6836 29.4609C28.4648 29.487 29.1061 29.6595 29.6074 29.9785C30.1152 30.2975 30.4928 30.7109 30.7402 31.2188C30.9876 31.7266 31.1113 32.2734 31.1113 32.8594C31.1113 33.7643 30.9128 34.5228 30.5156 35.1348C30.125 35.7467 29.5618 36.2122 28.8262 36.5312C28.0905 36.8438 27.2051 37 26.1699 37ZM40.1191 24.6758L35.8711 37H33.3027L38.6543 22.7812H40.2949L40.1191 24.6758ZM43.6738 37L39.416 24.6758L39.2305 22.7812H40.8809L46.252 37H43.6738ZM43.4688 31.7266V33.6699H35.7344V31.7266H43.4688ZM56.3242 33.3379C56.3242 33.0449 56.2786 32.7845 56.1875 32.5566C56.1029 32.3288 55.9499 32.1204 55.7285 31.9316C55.5072 31.7428 55.1947 31.5605 54.791 31.3848C54.3939 31.2025 53.8861 31.0169 53.2676 30.8281C52.5905 30.6198 51.9655 30.3887 51.3926 30.1348C50.8262 29.8743 50.3314 29.5749 49.9082 29.2363C49.485 28.8913 49.1562 28.4974 48.9219 28.0547C48.6875 27.6055 48.5703 27.0879 48.5703 26.502C48.5703 25.9225 48.6908 25.3952 48.9316 24.9199C49.179 24.4447 49.5273 24.0345 49.9766 23.6895C50.4323 23.3379 50.9694 23.0677 51.5879 22.8789C52.2064 22.6836 52.89 22.5859 53.6387 22.5859C54.6934 22.5859 55.6016 22.7812 56.3633 23.1719C57.1315 23.5625 57.7207 24.0866 58.1309 24.7441C58.5475 25.4017 58.7559 26.1276 58.7559 26.9219H56.3242C56.3242 26.4531 56.2233 26.0397 56.0215 25.6816C55.8262 25.3171 55.5267 25.0306 55.123 24.8223C54.7259 24.6139 54.2214 24.5098 53.6094 24.5098C53.0299 24.5098 52.5482 24.5977 52.1641 24.7734C51.7799 24.9492 51.4935 25.1868 51.3047 25.4863C51.1159 25.7858 51.0215 26.1243 51.0215 26.502C51.0215 26.7689 51.0833 27.013 51.207 27.2344C51.3307 27.4492 51.5195 27.651 51.7734 27.8398C52.0273 28.0221 52.3464 28.1947 52.7305 28.3574C53.1146 28.5202 53.5671 28.6764 54.0879 28.8262C54.8757 29.0605 55.5625 29.321 56.1484 29.6074C56.7344 29.8874 57.2227 30.2064 57.6133 30.5645C58.0039 30.9225 58.2969 31.3294 58.4922 31.7852C58.6875 32.2344 58.7852 32.7454 58.7852 33.3184C58.7852 33.9173 58.6647 34.4577 58.4238 34.9395C58.1829 35.4147 57.8379 35.8216 57.3887 36.1602C56.946 36.4922 56.4121 36.7493 55.7871 36.9316C55.1686 37.1074 54.4785 37.1953 53.7168 37.1953C53.0332 37.1953 52.3594 37.1042 51.6953 36.9219C51.0378 36.7396 50.4388 36.4629 49.8984 36.0918C49.3581 35.7142 48.9284 35.2454 48.6094 34.6855C48.2904 34.1191 48.1309 33.4583 48.1309 32.7031H50.582C50.582 33.1654 50.6602 33.5592 50.8164 33.8848C50.9792 34.2103 51.2038 34.4772 51.4902 34.6855C51.7767 34.8874 52.1087 35.0371 52.4863 35.1348C52.8704 35.2324 53.2806 35.2812 53.7168 35.2812C54.2897 35.2812 54.7682 35.1999 55.1523 35.0371C55.543 34.8743 55.8359 34.6465 56.0312 34.3535C56.2266 34.0605 56.3242 33.722 56.3242 33.3379ZM71.2598 35.0566V37H63.7109V35.0566H71.2598ZM64.4043 22.7812V37H61.9531V22.7812H64.4043ZM70.2734 28.7188V30.6328H63.7109V28.7188H70.2734ZM71.2109 22.7812V24.7344H63.7109V22.7812H71.2109ZM78.3926 37H75.3555L75.375 35.0566H78.3926C79.2715 35.0566 80.0072 34.8646 80.5996 34.4805C81.1986 34.0964 81.6478 33.5462 81.9473 32.8301C82.2533 32.1139 82.4062 31.2611 82.4062 30.2715V29.5C82.4062 28.7318 82.3184 28.0514 82.1426 27.459C81.9733 26.8665 81.7194 26.3685 81.3809 25.9648C81.0488 25.5612 80.6387 25.2552 80.1504 25.0469C79.6686 24.8385 79.112 24.7344 78.4805 24.7344H75.2969V22.7812H78.4805C79.4245 22.7812 80.2871 22.9408 81.0684 23.2598C81.8496 23.5723 82.5234 24.0247 83.0898 24.6172C83.6628 25.2096 84.1022 25.9193 84.4082 26.7461C84.7142 27.5729 84.8672 28.4974 84.8672 29.5195V30.2715C84.8672 31.2936 84.7142 32.2181 84.4082 33.0449C84.1022 33.8717 83.6628 34.5814 83.0898 35.1738C82.5169 35.7598 81.8333 36.2122 81.0391 36.5312C80.2513 36.8438 79.3691 37 78.3926 37ZM76.7129 22.7812V37H74.2617V22.7812H76.7129Z" fill="white"/>
<path d="M111.67 32.1855H115.088C115.042 33.1751 114.775 34.0475 114.287 34.8027C113.799 35.5579 113.122 36.1471 112.256 36.5703C111.396 36.987 110.381 37.1953 109.209 37.1953C108.258 37.1953 107.409 37.0358 106.66 36.7168C105.918 36.3978 105.286 35.9388 104.766 35.3398C104.251 34.7409 103.857 34.015 103.584 33.1621C103.317 32.3092 103.184 31.349 103.184 30.2812V29.5098C103.184 28.4421 103.324 27.4818 103.604 26.6289C103.89 25.7695 104.294 25.0404 104.814 24.4414C105.342 23.8359 105.973 23.3737 106.709 23.0547C107.445 22.7357 108.262 22.5762 109.16 22.5762C110.397 22.5762 111.442 22.7975 112.295 23.2402C113.148 23.6829 113.809 24.2917 114.277 25.0664C114.746 25.8346 115.023 26.7103 115.107 27.6934H111.689C111.676 27.1595 111.585 26.7135 111.416 26.3555C111.247 25.9909 110.98 25.7174 110.615 25.5352C110.251 25.3529 109.766 25.2617 109.16 25.2617C108.737 25.2617 108.369 25.3398 108.057 25.4961C107.744 25.6523 107.484 25.8997 107.275 26.2383C107.067 26.5768 106.911 27.0163 106.807 27.5566C106.709 28.0905 106.66 28.735 106.66 29.4902V30.2812C106.66 31.0365 106.706 31.681 106.797 32.2148C106.888 32.7487 107.035 33.1849 107.236 33.5234C107.438 33.862 107.699 34.1126 108.018 34.2754C108.343 34.4316 108.74 34.5098 109.209 34.5098C109.73 34.5098 110.169 34.4284 110.527 34.2656C110.885 34.0964 111.162 33.8424 111.357 33.5039C111.553 33.1589 111.657 32.7194 111.67 32.1855ZM128.74 29.6074V30.1836C128.74 31.2708 128.587 32.2474 128.281 33.1133C127.982 33.9727 127.555 34.7083 127.002 35.3203C126.449 35.9258 125.794 36.3913 125.039 36.7168C124.284 37.0358 123.451 37.1953 122.539 37.1953C121.621 37.1953 120.781 37.0358 120.02 36.7168C119.264 36.3913 118.607 35.9258 118.047 35.3203C117.493 34.7083 117.064 33.9727 116.758 33.1133C116.458 32.2474 116.309 31.2708 116.309 30.1836V29.6074C116.309 28.5202 116.458 27.5436 116.758 26.6777C117.064 25.8118 117.49 25.0762 118.037 24.4707C118.59 23.8587 119.245 23.3932 120 23.0742C120.762 22.7487 121.602 22.5859 122.52 22.5859C123.431 22.5859 124.264 22.7487 125.02 23.0742C125.781 23.3932 126.439 23.8587 126.992 24.4707C127.546 25.0762 127.975 25.8118 128.281 26.6777C128.587 27.5436 128.74 28.5202 128.74 29.6074ZM125.264 30.1836V29.5879C125.264 28.8848 125.202 28.2663 125.078 27.7324C124.961 27.1921 124.785 26.7396 124.551 26.375C124.316 26.0104 124.027 25.737 123.682 25.5547C123.343 25.3659 122.956 25.2715 122.52 25.2715C122.064 25.2715 121.667 25.3659 121.328 25.5547C120.99 25.737 120.706 26.0104 120.479 26.375C120.251 26.7396 120.078 27.1921 119.961 27.7324C119.85 28.2663 119.795 28.8848 119.795 29.5879V30.1836C119.795 30.8802 119.85 31.4987 119.961 32.0391C120.078 32.5729 120.251 33.0254 120.479 33.3965C120.713 33.7676 120.999 34.0475 121.338 34.2363C121.683 34.4251 122.083 34.5195 122.539 34.5195C122.975 34.5195 123.363 34.4251 123.701 34.2363C124.04 34.0475 124.323 33.7676 124.551 33.3965C124.785 33.0254 124.961 32.5729 125.078 32.0391C125.202 31.4987 125.264 30.8802 125.264 30.1836ZM136.328 25.7695L132.861 37H129.18L134.404 22.7812H136.738L136.328 25.7695ZM139.199 37L135.723 25.7695L135.273 22.7812H137.637L142.891 37H139.199ZM139.062 31.6973V34.3438H131.768V31.6973H139.062ZM151.807 32.1855H155.225C155.179 33.1751 154.912 34.0475 154.424 34.8027C153.936 35.5579 153.258 36.1471 152.393 36.5703C151.533 36.987 150.518 37.1953 149.346 37.1953C148.395 37.1953 147.546 37.0358 146.797 36.7168C146.055 36.3978 145.423 35.9388 144.902 35.3398C144.388 34.7409 143.994 34.015 143.721 33.1621C143.454 32.3092 143.32 31.349 143.32 30.2812V29.5098C143.32 28.4421 143.46 27.4818 143.74 26.6289C144.027 25.7695 144.43 25.0404 144.951 24.4414C145.479 23.8359 146.11 23.3737 146.846 23.0547C147.581 22.7357 148.398 22.5762 149.297 22.5762C150.534 22.5762 151.579 22.7975 152.432 23.2402C153.285 23.6829 153.945 24.2917 154.414 25.0664C154.883 25.8346 155.16 26.7103 155.244 27.6934H151.826C151.813 27.1595 151.722 26.7135 151.553 26.3555C151.383 25.9909 151.117 25.7174 150.752 25.5352C150.387 25.3529 149.902 25.2617 149.297 25.2617C148.874 25.2617 148.506 25.3398 148.193 25.4961C147.881 25.6523 147.62 25.8997 147.412 26.2383C147.204 26.5768 147.048 27.0163 146.943 27.5566C146.846 28.0905 146.797 28.735 146.797 29.4902V30.2812C146.797 31.0365 146.842 31.681 146.934 32.2148C147.025 32.7487 147.171 33.1849 147.373 33.5234C147.575 33.862 147.835 34.1126 148.154 34.2754C148.48 34.4316 148.877 34.5098 149.346 34.5098C149.867 34.5098 150.306 34.4284 150.664 34.2656C151.022 34.0964 151.299 33.8424 151.494 33.5039C151.689 33.1589 151.794 32.7194 151.807 32.1855ZM166.426 28.4258V31.0625H159.131V28.4258H166.426ZM160.273 22.7812V37H156.846V22.7812H160.273ZM168.73 22.7812V37H165.312V22.7812H168.73ZM174.551 22.7812V37H171.133V22.7812H174.551ZM188.838 22.7812V37H185.42L180.391 28.1523V37H176.963V22.7812H180.391L185.42 31.6289V22.7812H188.838ZM202.637 29.4023V35.2422C202.396 35.5091 202.025 35.7956 201.523 36.1016C201.029 36.401 200.404 36.6582 199.648 36.873C198.893 37.0879 198.005 37.1953 196.982 37.1953C196.038 37.1953 195.182 37.0456 194.414 36.7461C193.646 36.4401 192.985 35.9941 192.432 35.4082C191.885 34.8158 191.462 34.0931 191.162 33.2402C190.869 32.3809 190.723 31.3978 190.723 30.291V29.5C190.723 28.3932 190.872 27.4102 191.172 26.5508C191.471 25.6914 191.891 24.9688 192.432 24.3828C192.979 23.7904 193.62 23.3411 194.355 23.0352C195.098 22.7292 195.911 22.5762 196.797 22.5762C198.105 22.5762 199.17 22.7845 199.99 23.2012C200.811 23.6113 201.432 24.181 201.855 24.9102C202.279 25.6328 202.536 26.4694 202.627 27.4199H199.336C199.271 26.9512 199.147 26.554 198.965 26.2285C198.789 25.8965 198.535 25.6458 198.203 25.4766C197.871 25.3008 197.441 25.2129 196.914 25.2129C196.504 25.2129 196.13 25.3008 195.791 25.4766C195.459 25.6523 195.176 25.9193 194.941 26.2773C194.707 26.6289 194.525 27.0716 194.395 27.6055C194.271 28.1393 194.209 28.7643 194.209 29.4805V30.291C194.209 31.0007 194.268 31.6224 194.385 32.1562C194.508 32.6901 194.691 33.1361 194.932 33.4941C195.179 33.8457 195.492 34.1126 195.869 34.2949C196.253 34.4707 196.706 34.5586 197.227 34.5586C197.591 34.5586 197.904 34.5293 198.164 34.4707C198.424 34.4056 198.639 34.3275 198.809 34.2363C198.984 34.1387 199.118 34.0475 199.209 33.9629V31.7559H196.826V29.4023H202.637Z" fill="black"/>
</svg>
